<?xml version="1.0" standalone="no"?><!DOCTYPE svg PUBLIC "-//W3C//DTD SVG 1.1//EN" "http://www.w3.org/Graphics/SVG/1.1/DTD/svg11.dtd"><svg t="1669279807635" class="icon" viewBox="0 0 1024 1024" version="1.1" xmlns="http://www.w3.org/2000/svg" p-id="5837" xmlns:xlink="http://www.w3.org/1999/xlink" width="200" height="200"><path d="M512 42.667C771.2 42.667 981.333 252.8 981.333 512S771.2 981.333 512 981.333 42.667 771.2 42.667 512 252.8 42.667 512 42.667z m0 64c-223.85 0-405.333 181.482-405.333 405.333S288.149 917.333 512 917.333 917.333 735.851 917.333 512 735.851 106.667 512 106.667z m34.133 320c4.694 0 8.534 3.84 8.534 8.533v281.6a8.533 8.533 0 0 1-8.534 8.533H499.2a8.533 8.533 0 0 1-8.533-8.533V490.667h-34.134a8.533 8.533 0 0 1-8.533-8.534V435.2c0-4.693 3.84-8.533 8.533-8.533h89.6z m-23.466-128a42.667 42.667 0 1 1 0 85.333 42.667 42.667 0 0 1 0-85.333z" p-id="5838" fill="#1296db"></path></svg>