<?xml version="1.0" standalone="no"?><!DOCTYPE svg PUBLIC "-//W3C//DTD SVG 1.1//EN" "http://www.w3.org/Graphics/SVG/1.1/DTD/svg11.dtd"><svg t="1669279782066" class="icon" viewBox="0 0 1024 1024" version="1.1" xmlns="http://www.w3.org/2000/svg" p-id="4850" xmlns:xlink="http://www.w3.org/1999/xlink" width="200" height="200"><path d="M796.444444 113.777778a113.777778 113.777778 0 0 1 113.777778 113.777778v568.888888a113.777778 113.777778 0 0 1-113.777778 113.777778H227.555556a113.777778 113.777778 0 0 1-113.777778-113.777778V227.555556a113.777778 113.777778 0 0 1 113.777778-113.777778h568.888888zM209.237333 663.703704H170.666667v88.651852c0.075852 66.199704 48.772741 119.845926 108.885333 119.94074H322.37037v-42.477037h-42.81837c-38.836148 0-70.314667-34.702222-70.314667-77.463703V663.703704zM853.333333 663.703704h-41.377185v88.651852c0 42.552889-33.431704 77.141333-74.884741 77.463703H701.62963V872.296296h34.891851c64.474074-0.075852 116.736-53.741037 116.811852-119.94074V663.703704z m0.948148-170.211556H169.718519c-9.955556 0-18.014815 8.495407-18.014815 18.962963 0 10.486519 8.059259 18.962963 18.014815 18.962963h684.562962c9.955556 0 18.014815-8.476444 18.014815-18.962963 0-10.467556-8.059259-18.962963-18.014815-18.962963zM737.09037 170.666667H701.62963v40.637629h34.891851c20.005926 0 39.196444 7.812741 53.342815 21.69363a73.424593 73.424593 0 0 1 22.091852 52.394667V360.296296H853.333333v-74.903703c-0.075852-63.127704-51.996444-114.346667-116.242963-114.725926zM322.37037 170.666667h-42.81837c-60.112593 0.075852-108.809481 51.38963-108.885333 114.725926V360.296296h38.570666v-74.903703c0-40.922074 31.478519-74.088296 70.314667-74.088297H322.37037V170.666667z" p-id="4851" fill="#1296db"></path></svg>